<svg width="358" height="234" viewBox="0 0 358 234" fill="none" xmlns="http://www.w3.org/2000/svg">
<g clip-path="url(#clip0_55324_43)">
<path d="M337.8 225.55H24.6C20.4 225.55 17 222.15 17 217.95V7.75002C17 3.55002 20.4 0.150024 24.6 0.150024H337.8C342 0.150024 345.4 3.55002 345.4 7.75002V217.85C345.5 222.15 342 225.55 337.8 225.55Z" fill="#00D5E4"/>
<path d="M326.7 217.95H35.7001C31.5001 217.95 28.1001 214.55 28.1001 210.35V15.45C28.1001 11.25 31.5001 7.85004 35.7001 7.85004H326.7C330.9 7.85004 334.3 11.25 334.3 15.45V210.35C334.4 214.45 330.9 217.95 326.7 217.95Z" fill="#065090"/>
<path d="M116.1 29.05H75.9001V33.5501H116.1V29.05Z" fill="#FCFDFD"/>
<path d="M101.5 39.05H75.9001V43.55H101.5V39.05Z" fill="#FCFDFD"/>
<path d="M219 39.05H115.9V43.55H219V39.05Z" fill="#FCFDFD"/>
<path d="M283 39.05H229V43.55H283V39.05Z" fill="#FF6452"/>
<path d="M151 49.05H85.9001V53.55H151V49.05Z" fill="#00D050"/>
<path d="M268 49.05H171V53.55H268V49.05Z" fill="#FCFDFD"/>
<path d="M167.5 59.05H75.9001V63.55H167.5V59.05Z" fill="#FF6452"/>
<path d="M241 59.05H175.9V63.55H241V59.05Z" fill="#00D5E4"/>
<path d="M151 69.05H85.9001V73.55H151V69.05Z" fill="#FCFDFD"/>
<path d="M171 79.05H75.9001V83.55H171V79.05Z" fill="#FCFDFD"/>
<path d="M141 89.05H75.9001V93.55H141V89.05Z" fill="#FCFDFD"/>
<path d="M204.5 99.05H95.9001V103.55H204.5V99.05Z" fill="#FF6452"/>
<path d="M251 99.05H215.9V103.55H251V99.05Z" fill="#FCFDFD"/>
<path d="M301 99.05H265.9V103.55H301V99.05Z" fill="#FCFDFD"/>
<path d="M150.2 109.05H105.9V113.55H150.2V109.05Z" fill="#FCFDFD"/>
<path d="M165 119.05H105.9V123.55H165V119.05Z" fill="#FF6452"/>
<path d="M251 119.05H185.9V123.55H251V119.05Z" fill="#FCFDFD"/>
<path d="M293 119.05H265.9V123.55H293V119.05Z" fill="#FF6452"/>
<path d="M115.9 129.05H75.9001V133.55H115.9V129.05Z" fill="#FCFDFD"/>
<path d="M141 139.05H75.9001V143.55H141V139.05Z" fill="#FCFDFD"/>
<path d="M224 149.05H105.9V153.55H224V149.05Z" fill="#FCFDFD"/>
<path d="M309 149.05H235.9V153.55H309V149.05Z" fill="#00D5E4"/>
<path d="M146 159.05H105.9V163.55H146V159.05Z" fill="#FCFDFD"/>
<path d="M196 159.05H155.9V163.55H196V159.05Z" fill="#00D050"/>
<path d="M246 159.05H205.9V163.55H246V159.05Z" fill="#FCFDFD"/>
<path d="M141 169.05H75.9001V173.55H141V169.05Z" fill="#FCFDFD"/>
<path d="M161 179.05H95.9001V183.55H161V179.05Z" fill="#00D050"/>
<path d="M238.5 179.05H173.4V183.55H238.5V179.05Z" fill="#00D050"/>
<path d="M208.5 199.05H172V203.55H208.5V199.05Z" fill="#FCFDFD"/>
<path d="M192.5 189.05H95.9001V193.55H192.5V189.05Z" fill="#FCFDFD"/>
<path d="M50.8 29.05H46.3V33.5501H50.8V29.05Z" fill="#5E94C1"/>
<path d="M50.8 39.05H46.3V43.55H50.8V39.05Z" fill="#5E94C1"/>
<path d="M50.8 49.05H46.3V53.55H50.8V49.05Z" fill="#5E94C1"/>
<path d="M50.8 59.05H46.3V63.55H50.8V59.05Z" fill="#5E94C1"/>
<path d="M50.8 69.05H46.3V73.55H50.8V69.05Z" fill="#5E94C1"/>
<path d="M50.8 79.05H46.3V83.55H50.8V79.05Z" fill="#5E94C1"/>
<path d="M50.8 89.05H46.3V93.55H50.8V89.05Z" fill="#5E94C1"/>
<path d="M50.8 99.05H46.3V103.55H50.8V99.05Z" fill="#5E94C1"/>
<path d="M50.8 109.05H46.3V113.55H50.8V109.05Z" fill="#5E94C1"/>
<path d="M50.8 119.05H46.3V123.55H50.8V119.05Z" fill="#5E94C1"/>
<path d="M50.8 129.05H46.3V133.55H50.8V129.05Z" fill="#5E94C1"/>
<path d="M50.8 139.05H46.3V143.55H50.8V139.05Z" fill="#5E94C1"/>
<path d="M50.8 149.05H46.3V153.55H50.8V149.05Z" fill="#5E94C1"/>
<path d="M50.8 159.05H46.3V163.55H50.8V159.05Z" fill="#5E94C1"/>
<path d="M50.8 169.05H46.3V173.55H50.8V169.05Z" fill="#5E94C1"/>
<path d="M50.8 179.05H46.3V183.55H50.8V179.05Z" fill="#5E94C1"/>
<path d="M50.8 189.05H46.3V193.55H50.8V189.05Z" fill="#5E94C1"/>
<path d="M50.8 199.05H46.3V203.55H50.8V199.05Z" fill="#5E94C1"/>
<path d="M144.2 199.05H95.9001V203.55H144.2V199.05Z" fill="#FCFDFD"/>
<path d="M285.2 203.45L266.2 195.35V192.05L285.2 183.95V187.45L270.1 193.65L285.2 199.85V203.45Z" fill="#FCFDFD"/>
<path d="M298.6 179.15L290.3 207.85H287.5L295.8 179.15H298.6Z" fill="#FCFDFD"/>
<path d="M319.8 195.35L300.8 203.45V199.95L315.9 193.75L300.8 187.55V184.05L319.8 192.15V195.35Z" fill="#FCFDFD"/>
<path d="M337.5 233.85H20.5C9.5 233.85 0.5 224.85 0.5 213.85H357.5C357.5 224.95 348.5 233.85 337.5 233.85Z" fill="#00BBD3"/>
<g opacity="0.1">
<g opacity="0.1">
<path opacity="0.1" d="M129.9 217.95L204.5 7.75H176.2L101.6 217.95H129.9Z" fill="white"/>
</g>
<g opacity="0.1">
<path opacity="0.1" d="M35.8001 217.95H49.1001L123.7 7.75H35.8001C31.6001 7.75 28.2001 11.15 28.2001 15.35V210.25C28.1001 214.45 31.6001 217.95 35.8001 217.95Z" fill="white"/>
</g>
<g opacity="0.1">
<path opacity="0.1" d="M288.1 217.95H326.8C331 217.95 334.4 214.55 334.4 210.35V87.55L288.1 217.95Z" fill="white"/>
</g>
</g>
<g opacity="0.1">
<g opacity="0.1">
<path opacity="0.1" d="M184.8 217.95H236.7L311.3 7.75H259.4L184.8 217.95Z" fill="white"/>
</g>
</g>
<path d="M354.8 223.85C356.5 220.95 357.5 217.45 357.5 213.85H0.5C0.5 217.45 1.5 220.95 3.2 223.85H354.8Z" fill="#15D7E2"/>
</g>
<defs>
<clipPath id="clip0_55324_43">
<rect width="357" height="233.7" fill="white" transform="translate(0.5 0.150024)"/>
</clipPath>
</defs>
</svg>
