<svg width="17" height="16" viewBox="0 0 17 16" fill="none" xmlns="http://www.w3.org/2000/svg">
<path d="M8.49435 2C6.83099 2 5.23576 2.63214 4.05959 3.75736C2.88341 4.88258 2.22265 6.4087 2.22265 8C2.22265 9.5913 2.88341 11.1174 4.05959 12.2426C5.23576 13.3679 6.83099 14 8.49435 14C10.1577 14 11.7529 13.3679 12.9291 12.2426C14.1053 11.1174 14.766 9.5913 14.766 8C14.766 6.4087 14.1053 4.88258 12.9291 3.75736C11.7529 2.63214 10.1577 2 8.49435 2ZM0.654724 8C0.654724 3.85775 4.16452 0.5 8.49435 0.5C12.8242 0.5 16.334 3.85775 16.334 8C16.334 12.1423 12.8242 15.5 8.49435 15.5C4.16452 15.5 0.654724 12.1423 0.654724 8Z" fill="#7A7790"/>
<path d="M11.4006 5.96971C11.5476 6.11036 11.6301 6.30109 11.6301 6.49996C11.6301 6.69883 11.5476 6.88957 11.4006 7.03021L8.26475 10.0302C8.11774 10.1708 7.91837 10.2498 7.71049 10.2498C7.50261 10.2498 7.30324 10.1708 7.15623 10.0302L5.5883 8.53021C5.51343 8.46103 5.4537 8.37827 5.41262 8.28677C5.37153 8.19526 5.3499 8.09685 5.349 7.99726C5.34809 7.89768 5.36793 7.79892 5.40735 7.70675C5.44677 7.61457 5.50498 7.53084 5.57859 7.46042C5.65219 7.39 5.73972 7.33431 5.83607 7.2966C5.93242 7.25889 6.03565 7.23991 6.13974 7.24077C6.24384 7.24164 6.34671 7.26233 6.44235 7.30164C6.538 7.34094 6.62451 7.39808 6.69683 7.46971L7.71049 8.43946L10.2921 5.96971C10.4391 5.82911 10.6385 5.75012 10.8463 5.75012C11.0542 5.75012 11.2536 5.82911 11.4006 5.96971Z" fill="#7A7790"/>
</svg>
